<?xml version="1.0" standalone="no"?>
<!DOCTYPE svg PUBLIC "-//W3C//DTD SVG 20010904//EN"
 "http://www.w3.org/TR/2001/REC-SVG-20010904/DTD/svg10.dtd">
<svg version="1.0" xmlns="http://www.w3.org/2000/svg"
 width="256.000000pt" height="256.000000pt" viewBox="0 0 256.000000 256.000000"
 preserveAspectRatio="xMidYMid meet">
<metadata>
Created by potrace 1.11, written by Peter Selinger 2001-2013
</metadata>
<g transform="translate(0.000000,256.000000) scale(0.100000,-0.100000)"
fill="#000000" stroke="none">
<path d="M271 2501 l-31 -29 2 -1117 c3 -1048 4 -1117 20 -1126 25 -14 41 -46
23 -46 -8 0 -12 4 -9 9 3 4 1 8 -5 8 -5 0 -11 -5 -13 -12 -3 -7 -7 -5 -11 6
-4 9 -3 15 2 11 5 -3 12 -1 15 4 4 5 -2 8 -11 6 -10 -1 -27 2 -38 7 -19 8 -19
8 -2 -5 19 -16 23 -37 6 -37 -5 0 -8 4 -5 9 3 5 -4 11 -17 15 -12 3 -24 1 -25
-5 -3 -6 -8 -6 -17 1 -9 8 -15 8 -20 0 -4 -6 -3 -9 2 -8 4 2 8 -1 8 -7 0 -5
-3 -9 -7 -8 -4 2 -12 -6 -17 -16 -9 -16 -7 -18 15 -15 19 2 24 -1 20 -12 -4
-10 -2 -13 7 -7 15 10 48 5 66 -10 11 -9 13 -9 8 -1 -10 17 31 25 46 10 10
-11 15 -10 25 0 13 14 46 8 37 -6 -3 -5 0 -12 6 -16 18 -10 69 -13 75 -3 3 5
12 9 20 9 8 0 13 -4 10 -9 -3 -5 2 -15 12 -22 15 -12 16 -12 5 2 -10 12 -10
18 0 29 8 9 9 11 0 6 -6 -3 -14 -2 -17 3 -4 5 2 8 11 6 10 -1 25 2 33 8 12 9
13 9 3 -3 -10 -11 -9 -16 5 -26 9 -8 21 -14 26 -14 6 0 2 6 -8 13 -16 12 -15
13 13 11 17 -1 31 3 31 8 0 6 9 0 21 -13 14 -17 19 -19 15 -7 -4 12 -1 15 11
11 12 -5 14 -3 8 7 -5 9 -4 11 4 6 9 -6 9 -11 0 -22 -6 -8 -9 -17 -5 -21 3 -3
6 -1 6 5 0 7 5 12 11 12 5 0 7 -4 4 -10 -4 -6 1 -7 11 -3 11 4 13 8 6 11 -7 2
-12 9 -12 15 1 7 10 1 22 -13 12 -14 19 -18 15 -8 -3 9 0 19 8 22 10 3 12 0 9
-12 -4 -12 1 -10 15 7 12 13 21 19 21 14 0 -5 -5 -14 -12 -21 -9 -9 -9 -12 1
-12 7 0 9 -5 5 -12 -4 -7 -3 -8 5 -4 6 4 9 12 6 17 -9 14 19 11 34 -3 11 -10
13 -10 7 -1 -5 8 -1 13 9 13 10 0 13 -5 9 -12 -4 -7 2 -5 13 4 22 20 33 23 33
7 0 -5 -4 -7 -10 -4 -16 10 -11 -1 7 -16 11 -10 14 -10 9 -1 -5 8 -1 11 16 8
13 -2 22 -9 20 -16 -1 -6 2 -9 8 -5 8 5 8 11 -1 21 -6 7 -16 11 -22 7 -6 -3
-7 -1 -3 6 4 6 12 8 18 5 6 -4 25 -9 41 -11 17 -1 34 -9 39 -16 6 -9 8 -9 8 0
0 6 -4 15 -10 18 -5 3 -10 12 -10 18 0 7 5 4 11 -6 6 -9 15 -15 20 -12 5 4 6
11 3 17 -4 7 -2 8 5 4 6 -4 9 -12 6 -17 -9 -14 29 -11 44 4 8 6 11 8 9 2 -3
-5 1 -17 10 -24 14 -13 15 -12 10 7 -4 12 -2 22 3 22 5 0 10 -4 10 -10 1 -5 2
-14 3 -19 0 -5 5 -13 10 -18 5 -5 6 -3 2 5 -4 7 0 15 10 19 10 4 19 2 22 -5 2
-8 11 -4 24 10 11 13 16 17 12 9 -5 -11 -1 -12 19 -7 19 4 26 3 23 -6 -1 -7
-1 -10 1 -5 3 4 9 5 14 1 5 -3 9 -2 8 3 -1 4 -1 15 0 23 1 12 4 12 12 -3 13
-22 35 -22 48 1 6 10 11 12 11 4 0 -7 5 -10 10 -7 6 3 10 1 10 -5 0 -7 -7 -9
-16 -6 -10 4 -13 2 -8 -6 4 -7 3 -8 -4 -4 -7 4 -12 3 -12 -3 0 -5 12 -8 28 -7
15 2 27 9 27 17 0 7 12 14 27 14 15 1 25 -2 22 -6 -2 -4 -12 -6 -22 -4 -12 2
-18 -3 -18 -17 0 -15 3 -16 11 -6 14 18 37 21 47 6 7 -9 8 -6 5 10 -3 12 -1
22 4 22 8 0 14 -23 10 -44 -1 -5 4 -5 11 1 7 6 18 12 23 12 6 1 11 6 11 11 1
6 2 16 3 23 1 8 5 6 11 -4 6 -10 20 -15 34 -14 19 2 23 -1 19 -13 -3 -11 -2
-13 4 -6 4 6 16 10 26 8 13 -2 16 2 12 16 -3 10 -1 21 4 25 7 3 8 0 5 -9 -3
-9 -1 -16 5 -16 6 0 11 8 12 18 0 11 2 12 6 4 3 -7 0 -19 -7 -26 -8 -11 -8
-16 1 -22 8 -5 9 -3 4 6 -6 10 -4 12 8 7 11 -4 14 -2 11 7 -3 7 3 16 13 20 10
3 25 9 33 12 8 4 4 -2 -9 -13 -21 -17 -22 -20 -7 -26 9 -4 15 -3 12 2 -3 5 1
12 10 15 8 3 13 2 10 -2 -2 -4 -1 -14 5 -22 10 -16 12 -9 11 35 -1 17 0 17 4
2 3 -9 10 -14 16 -11 6 4 8 -2 4 -17 -3 -13 -3 -18 0 -11 3 6 12 12 20 12 8 0
14 5 14 11 0 5 -4 8 -8 5 -5 -3 -9 1 -9 9 0 11 4 12 13 4 9 -7 19 -7 33 0 11
6 23 11 28 11 4 -1 -4 -8 -19 -16 -16 -8 -28 -20 -28 -27 0 -8 3 -8 9 2 5 8
16 11 24 8 8 -3 20 0 27 6 10 10 12 8 7 -6 -5 -13 -3 -16 6 -10 17 11 31 10
40 -2 4 -5 5 4 2 20 -3 17 -2 24 1 18 4 -9 11 -10 23 -3 13 6 18 5 18 -5 0 -7
-6 -11 -14 -8 -7 3 -13 1 -13 -4 0 -5 11 -9 24 -9 15 0 22 5 19 12 -6 17 47
10 58 -7 5 -8 9 -9 9 -3 0 5 -5 15 -10 20 -7 7 -6 11 5 11 8 0 15 -7 16 -16 0
-10 2 -12 6 -3 2 6 9 12 14 12 6 0 8 -4 5 -9 -3 -4 5 -8 17 -7 16 1 22 7 21
21 -1 14 6 21 19 22 19 2 19 2 1 -12 -12 -9 -14 -14 -6 -15 7 0 10 -6 7 -12
-4 -7 0 -5 8 5 20 24 65 29 77 8 7 -12 9 -12 10 -2 0 9 7 11 21 8 14 -4 19 -2
15 8 -2 7 2 16 11 19 28 11 -4 35 -40 30 -18 -2 -27 0 -20 4 9 6 6 11 -8 20
-19 12 -20 11 -14 -10 7 -23 7 -23 -10 -3 -11 14 -18 16 -21 7 -3 -6 -9 -10
-14 -7 -5 3 5 18 21 34 28 28 29 33 29 125 l0 96 44 0 c33 0 52 6 73 24 l28
24 3 224 c3 210 2 226 -16 248 l-20 24 37 46 c19 25 57 70 83 99 27 30 48 59
48 64 0 5 20 34 44 66 41 52 50 77 47 123 -1 9 -27 38 -59 63 -76 62 -76 61
-166 128 -42 32 -75 61 -72 64 3 3 16 11 28 17 43 22 48 48 48 272 l0 212 -29
31 c-24 26 -36 31 -75 31 l-46 0 0 131 0 131 -31 29 -31 29 -908 0 -908 0 -31
-29z m-86 -2331 c-17 -18 -38 -21 -52 -5 -4 4 -3 5 3 2 6 -4 19 2 29 13 10 11
22 17 27 14 5 -3 2 -14 -7 -24z m22 -13 c0 -8 -6 -14 -14 -14 -9 0 -10 4 -2
14 6 7 12 13 14 13 1 0 2 -6 2 -13z m77 -3 c3 -8 2 -12 -4 -9 -6 3 -10 10 -10
16 0 14 7 11 14 -7z m1923 -6 c2 -17 0 -19 -7 -8 -5 8 -6 18 -4 22 8 12 10 10
11 -14z m-1824 -31 c22 13 49 14 45 1 -4 -11 -28 -14 -68 -9 -5 0 -6 9 -2 19
6 16 7 16 10 -1 2 -10 8 -14 15 -10z m402 4 c3 -5 2 -12 -3 -15 -5 -3 -9 1 -9
9 0 17 3 19 12 6z m339 -7 c3 -8 2 -12 -4 -9 -6 3 -10 10 -10 16 0 14 7 11 14
-7z m406 6 c0 -5 -5 -10 -11 -10 -5 0 -7 5 -4 10 3 6 8 10 11 10 2 0 4 -4 4
-10z m555 0 c3 -5 1 -10 -4 -10 -6 0 -11 5 -11 10 0 6 2 10 4 10 3 0 8 -4 11
-10z m-621 -28 c3 -5 -1 -9 -9 -9 -8 0 -15 4 -15 9 0 10 17 10 24 0z"/>
<path d="M169 173 c-13 -16 -12 -17 4 -4 16 13 21 21 13 21 -2 0 -10 -8 -17
-17z"/>
<path d="M2197 219 c7 -7 15 -10 18 -7 3 3 -2 9 -12 12 -14 6 -15 5 -6 -5z"/>
<path d="M2230 198 c0 -6 3 -8 7 -5 3 4 14 0 24 -9 12 -11 23 -13 34 -6 16 8
16 9 1 15 -10 4 -15 3 -11 -3 3 -6 1 -10 -5 -10 -6 0 -13 7 -16 15 -7 18 -34
20 -34 3z"/>
<path d="M2274 154 c-17 -14 -17 -15 -1 -10 10 3 23 6 28 6 5 0 9 5 9 10 0 14
-13 12 -36 -6z"/>
<path d="M257 117 c-3 -8 1 -14 8 -14 7 0 11 6 8 14 -3 7 -6 13 -8 13 -2 0 -5
-6 -8 -13z"/>
<path d="M317 123 c-10 -9 -9 -23 1 -23 5 0 9 7 9 15 0 17 -1 18 -10 8z"/>
<path d="M2146 114 c-8 -22 -4 -25 11 -9 7 8 9 16 4 19 -5 3 -12 -1 -15 -10z"/>
<path d="M550 98 c0 -4 4 -8 9 -8 6 0 12 4 15 8 3 5 -1 9 -9 9 -8 0 -15 -4
-15 -9z"/>
<path d="M1970 102 c0 -5 7 -9 15 -9 8 0 12 4 9 9 -7 10 -24 10 -24 0z"/>
<path d="M1246 87 c3 -10 9 -15 12 -12 3 3 0 11 -7 18 -10 9 -11 8 -5 -6z"/>
<path d="M1486 87 c3 -10 9 -15 12 -12 3 3 0 11 -7 18 -10 9 -11 8 -5 -6z"/>
<path d="M926 82 c-3 -5 1 -9 9 -9 8 0 12 4 9 9 -3 4 -7 8 -9 8 -2 0 -6 -4 -9
-8z"/>
<path d="M990 80 c0 -5 5 -10 11 -10 5 0 7 5 4 10 -3 6 -8 10 -11 10 -2 0 -4
-4 -4 -10z"/>
<path d="M1510 81 c0 -6 4 -12 8 -15 5 -3 9 1 9 9 0 8 -4 15 -9 15 -4 0 -8 -4
-8 -9z"/>
</g>
</svg>
